<?xml version="1.0" encoding="UTF-8" standalone="no"?>
<!-- Created with Inkscape (http://www.inkscape.org/) -->

<svg
   width="512mm"
   height="512mm"
   viewBox="0 0 512 512"
   version="1.1"
   id="svg5"
   inkscape:version="1.1.1 (3bf5ae0d25, 2021-09-20)"
   sodipodi:docname="logo.svg"
   inkscape:export-filename="/home/brian/dev/web/bhdouglass.com/public/images/logo.png"
   inkscape:export-xdpi="3.1700001"
   inkscape:export-ydpi="3.1700001"
   xmlns:inkscape="http://www.inkscape.org/namespaces/inkscape"
   xmlns:sodipodi="http://sodipodi.sourceforge.net/DTD/sodipodi-0.dtd"
   xmlns="http://www.w3.org/2000/svg"
   xmlns:svg="http://www.w3.org/2000/svg">
  <sodipodi:namedview
     id="namedview7"
     pagecolor="#ffffff"
     bordercolor="#666666"
     borderopacity="1.0"
     inkscape:pageshadow="2"
     inkscape:pageopacity="0.0"
     inkscape:pagecheckerboard="0"
     inkscape:document-units="px"
     showgrid="false"
     inkscape:zoom="0.24548119"
     inkscape:cx="1044.8866"
     inkscape:cy="879.90448"
     inkscape:window-width="1920"
     inkscape:window-height="1011"
     inkscape:window-x="0"
     inkscape:window-y="0"
     inkscape:window-maximized="1"
     inkscape:current-layer="layer1" />
  <defs
     id="defs2" />
  <g
     inkscape:label="Layer 1"
     inkscape:groupmode="layer"
     id="layer1">
    <g
       id="g984"
       transform="translate(-49.893811,26.005448)">
      <path
         d="m 321.82469,102.54722 c -14.46735,0 -30.31316,1.03321 -46.50343,3.44561 -17.91258,2.41238 -33.41271,6.88859 -46.50346,13.09012 -86.80412,40.98899 -75.09247,149.49601 -74.748,150.52325 1.03319,12.40059 10.67767,35.82269 39.61176,37.54562 h 2.0664 c 1.72279,8.26766 8.61152,28.93408 32.03363,36.16899 4.1328,1.37681 7.92198,1.7228 11.71106,1.7228 7.23491,0 14.12351,-2.0664 20.66889,-5.16593 l 14.46734,3.44559 c 0.6896,7.922 7.23491,14.12351 15.50013,14.12351 6.54537,0 12.05737,-3.78919 14.46735,-9.98812 l 13.09013,-33.41272 c 0.3436,-0.6896 0.3436,-1.37679 0.3436,-2.41238 v -10.33445 c 0,-1.37679 -0.3436,-2.4124 -1.03321,-3.78919 19.28921,-1.0332 50.29253,-8.61152 62.69188,-23.42211 4.47875,-5.51194 6.19909,-11.71106 5.16594,-17.56689 -0.68961,-3.44559 -1.3768,-6.54537 -2.0664,-9.30105 5.51192,1.7228 9.30106,2.4124 11.71104,2.75599 h 2.06641 c 15.15689,0 39.61177,-9.30105 55.11497,-25.14503 8.26766,-8.61152 12.74444,-17.91257 12.74444,-27.21119 -2.06399,-45.81821 -46.50099,-95.07733 -142.60679,-95.07733 z m 123.31701,70.61447 c -8.61153,-1.7228 -19.97873,-2.06638 -28.59026,3.78922 -9.98814,-6.88861 -16.87921,-14.81061 -19.28919,-17.9126 0.68959,-1.7228 1.37679,-3.44559 2.41239,-4.82232 2.06639,-4.1328 4.82234,-10.67767 5.85553,-11.36722 3.09959,-0.68958 8.26767,-1.37679 12.05736,-2.0664 13.08767,9.30108 22.38873,20.66644 27.55502,32.37995 z M 228.47581,133.54747 c 14.12351,-7.57813 30.31317,-12.40059 48.56958,-15.1569 1.03321,0 1.7228,-0.34358 2.756,-0.34358 4.13281,2.41239 8.26768,5.51191 9.64491,8.61151 0.3436,1.37681 1.7228,2.06641 3.09959,2.06641 0.3436,0 0.6896,0 1.0332,-0.3436 1.7228,-0.6896 2.4124,-2.4124 1.7228,-4.13279 -1.03321,-2.756 -3.09959,-5.16593 -5.85551,-7.57815 11.3672,-1.03319 22.38871,-1.72279 32.72315,-1.72279 h 5.16593 c 1.0332,1.72279 2.4124,4.1328 4.13279,7.92199 2.756,6.19906 -10.33445,18.25643 -20.66888,25.14502 h -8.26768 c -5.51192,0 -10.67767,0 -14.81059,-0.6896 -6.88859,-1.37679 -11.71104,-5.85552 -16.5335,-10.67767 -3.44559,-3.44559 -7.2349,-6.8886 -11.71105,-9.30105 -9.2986,-4.13279 -23.42212,2.0688 -31.00025,6.20151 z m -6.88861,3.78919 c -0.3436,6.54537 1.7228,13.77721 7.922,20.32258 -4.47633,2.4124 -8.60907,5.85793 -11.71106,9.30106 -7.57814,-5.51193 -14.46735,-8.26769 -19.63551,-9.30106 6.54784,-7.92199 14.46921,-14.46736 23.42457,-20.32258 z m 9.9906,194.27593 c -15.1569,-4.82233 -20.66889,-17.56689 -22.73503,-24.45796 13.09013,-1.03319 28.24702,-3.44559 42.71376,-5.85552 3.09959,-0.34358 6.19905,-1.0332 9.30106,-1.37679 0.3436,0.34359 0.68959,0.68959 1.37679,1.03319 l 14.46736,8.26768 c -7.92199,11.02152 -26.86796,28.24456 -45.12377,22.38872 z m 73.37016,-20.66643 -12.74443,32.37995 c -0.34359,1.0332 -1.37681,1.7228 -2.75599,1.7228 -1.37681,0 -2.75602,-1.37682 -2.75602,-2.756 v -3.7892 c 0,-3.09959 -2.06638,-5.51193 -4.8223,-6.19906 l -7.922,-1.7252 c 5.85553,-5.16592 10.67767,-11.02398 13.77721,-15.84643 1.03319,0 1.7228,0 2.75599,-0.34358 l 14.46735,-4.82233 z m -24.45548,-13.77965 c 5.16593,-0.6896 9.98813,-1.0332 13.7772,-1.0332 3.09959,0 5.51192,0.34359 7.57814,0.68959 0.34359,0 1.03319,0.3436 1.37679,0.3436 l -14.81059,4.82233 c -0.34359,0 -0.34359,-0.3436 -0.68959,-0.3436 z m 32.37992,-12.0549 h -0.68958 c -3.09961,0 -5.85553,-0.3436 -7.92199,-0.6896 -2.756,-0.68959 -6.19906,-0.68959 -9.98813,-0.68959 -2.41239,0 -4.82234,0 -7.23493,0.34358 -0.68959,-2.06639 -1.72279,-4.47873 -2.41239,-6.88859 8.26768,-4.47875 13.77721,-9.64492 14.12351,-9.98815 1.37681,-1.37679 1.37681,-3.0996 0,-4.47872 -1.37679,-1.3768 -3.0996,-1.3768 -4.47872,0 0,0 -14.12352,13.43396 -29.96748,14.46735 -1.7228,0 -3.09959,1.7228 -3.09959,3.4456 0,1.72279 1.37679,3.09958 3.09959,3.09958 h 0.3436 c 5.16593,-0.34357 9.64489,-1.72279 14.12351,-3.44559 0.6896,1.7228 1.37679,3.0996 1.72279,4.82233 -9.30106,1.03321 -19.97872,2.756 -31.34656,4.47875 -3.09959,0.34598 -6.19906,1.03319 -9.64489,1.37918 1.72278,-5.16592 5.51192,-13.7772 13.77719,-21.35596 5.51194,-5.16593 7.57814,-10.67768 7.57814,-16.18966 8.26769,-0.68961 31.00026,-2.0664 46.50346,0.3436 13.77719,2.06639 18.94596,0 21.70164,-1.37681 0.3436,0 0.6896,-0.34358 0.6896,-0.34358 1.7228,1.03319 6.19906,6.19905 7.2349,10.33444 0.3436,1.37679 0,1.7228 0,1.7228 -0.68959,0.68959 -2.06639,1.72279 -3.78919,3.09958 -7.23735,5.16353 -15.15935,11.70861 -20.32503,17.91012 z m 9.29862,-0.6896 c 5.51191,-5.16593 12.40058,-10.33445 15.84642,-12.74443 0.6896,-0.6896 1.37679,-1.03322 2.06639,-1.7228 2.756,1.7228 7.57814,4.82232 13.7772,6.19906 -9.64489,4.1352 -21.00964,6.89107 -31.6904,8.26768 z m 58.2145,-50.97959 c -2.756,-1.0332 -5.85554,-2.0664 -9.64492,-3.0996 -2.4124,-1.37679 -4.47872,-1.7228 -5.51193,-1.7228 h -0.34358 c -3.09961,0.3436 -5.51193,2.4124 -5.85553,5.51193 -0.3436,3.09961 1.37679,5.85553 4.13279,6.88859 0,0 0.68959,0.3436 2.06639,0.68961 1.37681,1.0332 4.47873,5.16593 6.54537,17.22304 0.3436,1.3768 0.3436,3.78919 -2.4124,7.23491 -1.37679,1.7228 -3.44559,3.44559 -5.51191,4.82233 -8.95539,0.68961 -16.53351,-3.44559 -19.63552,-5.51193 0.3436,-0.6896 0.3436,-1.7228 0.3436,-3.09959 -0.3436,-4.82233 -4.82231,-11.02397 -8.26766,-14.12351 5.51191,-6.19907 9.64489,-16.5335 10.33443,-18.25644 0.68961,-1.72277 -0.34359,-3.44556 -1.72278,-4.13278 -1.72281,-0.6896 -3.4456,0.34359 -4.13282,1.7228 -2.06638,5.51192 -6.8886,15.15689 -11.02397,17.91257 -0.68959,0.3436 -1.72278,0.3436 -2.41239,0.6896 -2.4124,1.0332 -6.19906,2.75599 -18.25641,1.0332 -16.87921,-2.75599 -39.95809,-1.0332 -48.2233,-0.34359 -1.37681,-5.16592 -4.1328,-9.98813 -6.54537,-12.74444 -1.0332,-1.37679 -3.0996,-1.37679 -4.47874,-0.3436 -1.37679,1.0332 -1.37679,3.09961 -0.3436,4.47874 0.3436,0.3436 4.82234,5.51194 5.51193,12.05736 v 0.3436 c 0.3436,4.47872 -0.68959,9.30105 -5.51193,13.77719 -11.3672,10.33445 -15.15688,21.70166 -16.53349,27.21119 -12.4006,1.7228 -24.11164,3.44559 -33.75656,3.44559 h -4.82233 c -18.59964,-1.03319 -24.80118,-13.7772 -26.86794,-21.35595 4.47873,-1.72279 9.98815,-4.82234 15.15689,-9.98814 4.13279,-4.13279 6.88861,-7.922 8.95537,-11.3672 1.7228,3.78918 4.47872,7.92197 9.98812,11.02396 1.37682,1.0332 3.4456,0.3436 4.47874,-1.03319 1.0332,-1.37679 0.3436,-3.44559 -1.03319,-4.47873 -8.61153,-5.16593 -8.95536,-14.81059 -8.95536,-15.15688 0,-1.72281 -1.03321,-2.756 -2.756,-3.09961 -1.37681,-0.34359 -3.0996,0.6896 -3.44559,2.41238 0,0 -2.4124,7.92201 -11.36723,16.87922 -4.13278,4.13278 -8.26766,6.54538 -11.71104,8.26766 -0.34359,-3.44559 -1.03319,-13.09012 0,-25.83455 l 16.18966,-5.51194 c 1.72279,-0.6896 2.4124,-2.4124 2.06639,-4.13279 -0.3436,-1.72279 -2.4124,-2.41239 -4.13279,-2.06638 l -13.77721,4.47872 c 0.68961,-6.88861 2.0664,-14.12351 3.78919,-22.04549 1.03321,2.06639 2.756,3.78919 4.47875,5.51192 0.68959,0.68959 1.37679,0.68959 2.06638,0.68959 1.0332,0 1.72281,-0.3436 2.4124,-1.03319 1.0332,-1.37679 1.0332,-3.44559 -0.3436,-4.47872 -3.44559,-3.09961 -5.16593,-7.57816 -5.85552,-11.36722 0.3436,-1.03321 0.68959,-1.7228 0.68959,-2.75599 4.47874,-13.7772 11.02397,-25.83456 18.94597,-36.169 4.47873,0.68959 11.71104,2.75599 19.97873,8.61152 -1.0332,1.03319 -1.72279,2.0664 -2.4124,2.75599 -9.98812,12.4006 -14.12351,24.11164 -14.46735,25.83455 -1.03319,2.4124 -1.37679,4.82234 -0.3436,7.23493 2.0664,5.16591 8.61152,7.57813 15.50013,9.98813 5.16593,1.72279 10.67767,3.78919 12.4006,6.54537 3.78919,6.19906 -3.44559,12.05736 -3.78919,12.40059 -0.68961,0.6896 -1.03322,1.3768 -1.03322,2.41239 0,1.03321 0.3436,1.7228 1.03322,2.4124 0.34357,0.34359 7.92198,7.23491 -0.68961,21.01211 -9.30107,14.81059 -28.24701,14.46736 -28.59024,14.46736 -1.72281,0 -3.09961,1.37679 -3.09961,3.09959 0,1.7228 1.3768,3.09959 3.09961,3.09959 l 0.34598,-0.0139 c 3.44559,0 23.0789,-0.68961 33.75655,-17.56689 8.26769,-13.09015 4.47874,-22.38874 1.72279,-26.52411 3.78922,-4.1328 7.23493,-11.36722 3.09961,-18.59966 -2.756,-4.47872 -9.30107,-6.88859 -15.50013,-9.30105 -4.82233,-1.72281 -11.02397,-4.13279 -12.05736,-6.54539 0,-0.34358 -0.3436,-0.6896 0.3436,-2.06639 0,0 0,-0.34359 0.34359,-0.34359 0,0 3.44559,-11.71104 13.43397,-24.11164 13.43398,-16.53352 24.11165,-21.70165 33.06947,-15.15689 4.82234,3.09958 6.88861,7.2349 7.922,11.02396 1.37679,5.16593 0,9.64492 0,9.64492 -0.3436,1.72279 0.34357,3.44559 2.06639,3.78919 1.7228,0.3436 3.4456,-0.3436 3.78919,-2.0664 0.6896,-2.4124 1.0332,-5.85553 0.6896,-9.6449 8.26766,-1.03321 31.6904,-3.0996 44.78053,6.54537 0.34359,3.78919 1.72278,7.92199 5.51192,11.36721 0.68961,0.68959 1.37679,0.68959 2.0664,0.68959 0.6896,0 1.72279,-0.34358 2.4124,-1.0332 1.03319,-1.37679 1.03319,-3.44559 0,-4.47872 -7.23491,-6.88861 -0.68961,-19.28919 -0.68961,-19.63549 0.68961,-1.37682 0.3436,-3.4456 -1.37679,-4.13281 -1.3768,-0.6896 -3.44559,-0.3436 -4.1328,1.37682 0,0.34357 -2.0664,3.78918 -3.09959,8.6115 -15.50013,-8.95537 -38.579,-6.54536 -46.84667,-5.51192 -1.7228,-4.47874 -4.47874,-8.61152 -9.64492,-12.40059 -5.85552,-4.13278 -11.71104,-4.47873 -17.22304,-3.09959 -5.16592,-4.47874 -7.23491,-9.30107 -7.92198,-13.77721 8.26769,-5.16593 21.70164,-11.02397 27.90073,-7.92199 3.78919,2.06641 6.88858,5.16593 10.33444,8.26768 5.51191,5.16593 11.3672,10.67767 19.97872,12.40059 4.82232,1.0332 10.33445,0.6896 16.18966,0.6896 9.6449,0 19.97874,-0.34359 23.7684,4.82234 2.4124,3.09959 5.16594,9.30105 8.26769,15.50011 5.85553,12.74445 11.71105,24.80118 19.2892,26.5241 h 0.6896 c 1.37679,0 2.75599,-1.0332 3.09959,-2.4124 0.3436,-1.7228 -0.6896,-3.44559 -2.4124,-3.78919 -2.4124,-0.3436 -4.82233,-3.78919 -7.57814,-8.26767 16.8792,4.47872 38.9247,12.74443 41.33469,20.32257 3.0972,11.01906 -4.82479,23.07642 -8.27014,27.89827 z m 61.31401,-17.56874 c -13.09011,13.43398 -35.47946,22.0455 -47.5362,21.35595 -1.0332,0 -3.44559,-0.68959 -7.57815,-1.7228 4.47873,-6.54537 11.71106,-18.94594 7.922,-29.96747 -4.82234,-14.12352 -42.36807,-23.76841 -51.66913,-25.83456 -1.37681,-2.41239 -2.41239,-4.82233 -3.44559,-7.2349 -3.09962,-6.54537 -6.19908,-13.09014 -8.95538,-16.87921 -2.756,-3.44559 -6.54536,-5.16593 -11.02398,-6.19906 5.16593,-4.1328 12.05736,-10.33445 15.50013,-16.53352 4.47872,0.68961 12.74443,2.0664 19.97873,2.0664 5.85553,0 11.02397,-0.68958 13.43398,-3.09959 1.37679,-1.0332 1.37679,-3.0996 0.34357,-4.47873 -1.03319,-1.3768 -3.09958,-1.3768 -4.47872,-0.34359 -2.41238,2.0664 -15.50012,1.7228 -27.21116,-0.3436 0.34357,-2.06639 0,-4.13279 -0.6896,-5.85553 -0.68961,-2.06638 -1.7228,-3.78919 -2.4124,-5.16593 31.69039,1.7228 56.83481,8.95539 75.43692,19.97875 -2.06639,0.34357 -3.78919,0.68958 -5.16593,1.0332 -3.78919,0.68959 -6.19906,5.51191 -10.67766,15.15688 -2.75601,5.85552 -7.92199,17.56689 -11.02398,16.53352 -9.30106,-3.09962 -26.52411,-17.22306 -26.52411,-17.56689 -1.37679,-1.0332 -3.44559,-1.0332 -4.47872,0.34357 -1.0332,1.37682 -1.0332,3.44559 0.34358,4.47875 0.6896,0.68959 18.25644,14.81058 28.59027,18.59964 1.0332,0.3436 1.72279,0.3436 2.41238,0.3436 4.47873,0 7.922,-4.13279 11.02399,-9.30105 3.78919,4.47873 10.67767,11.71106 20.66888,18.25641 13.09012,8.61153 11.36721,31.6904 11.36721,32.03364 0,1.72278 1.03319,3.0996 2.75599,3.44559 h 0.3436 c 1.72279,0 3.09958,-1.3768 3.09958,-3.0996 0,-1.03319 1.3768,-23.07887 -10.67767,-34.78993 7.922,-4.13279 18.59965,-2.756 26.17841,-0.6896 1.72281,5.85553 2.756,11.36722 2.756,17.22305 0.69439,7.2349 -4.47154,13.77967 -8.60661,18.25643 z"
         id="path1076"
         style="stroke-width:0.615109" />
      <path
         d="m 116.47703,116.32554 c -16.997303,0 -31.000243,14.00602 -31.000243,31.00025 v 62.00294 c 0,5.90365 -4.430692,10.33445 -10.334436,10.33445 H 61.365138 v 20.66889 h 13.777213 c 5.903619,0 10.334436,4.43068 10.334436,10.33443 v 62.00296 c 0,16.9973 14.006018,31.00025 31.000243,31.00025 h 13.77721 v -20.66889 h -13.77721 c -5.90363,0 -10.33444,-4.43068 -10.33444,-10.33444 v -62.00294 c 0,-7.94108 -3.08274,-15.1569 -8.073299,-20.66889 4.959309,-5.50473 8.073299,-12.75367 8.073299,-20.66888 v -62.00296 c 0,-5.90362 4.43069,-10.33444 10.33444,-10.33444 h 13.77721 v -20.66888 h -13.77721 z"
         id="path2112"
         style="stroke-width:0.615109" />
      <path
         d="m 495.31058,116.32554 c 16.9973,0 31.00026,14.00602 31.00026,31.00025 v 62.00294 c 0,5.90365 4.43068,10.33445 10.33443,10.33445 h 13.7772 v 20.66889 h -13.7772 c -5.90363,0 -10.33443,4.43068 -10.33443,10.33443 v 62.00296 c 0,16.9973 -14.00603,31.00025 -31.00026,31.00025 h -13.7772 v -20.66889 h 13.7772 c 5.90363,0 10.33444,-4.43068 10.33444,-10.33444 v -62.00294 c 0,-7.94108 3.08274,-15.1569 8.0733,-20.66889 -4.95931,-5.50473 -8.0733,-12.75367 -8.0733,-20.66888 v -62.00296 c 0,-5.90362 -4.43068,-10.33444 -10.33444,-10.33444 h -13.7772 v -20.66888 h 13.7772 z"
         id="path2695"
         style="stroke-width:0.615109" />
    </g>
  </g>
</svg>
