<?xml version="1.0" encoding="UTF-8" standalone="no"?>
<svg
   xmlns:dc="http://purl.org/dc/elements/1.1/"
   xmlns:cc="http://creativecommons.org/ns#"
   xmlns:rdf="http://www.w3.org/1999/02/22-rdf-syntax-ns#"
   xmlns:svg="http://www.w3.org/2000/svg"
   xmlns="http://www.w3.org/2000/svg"
   xmlns:sodipodi="http://sodipodi.sourceforge.net/DTD/sodipodi-0.dtd"
   xmlns:inkscape="http://www.inkscape.org/namespaces/inkscape"
   version="1.1"
   x="0px"
   y="0px"
   viewBox="0 0 100 100"
   enable-background="new 0 0 100 100"
   xml:space="preserve"
   id="svg1654"
   sodipodi:docname="cli.svg"
   width="100"
   height="100"
   inkscape:version="0.92.2 5c3e80d, 2017-08-06"><metadata
     id="metadata1660"><rdf:RDF><cc:Work
         rdf:about=""><dc:format>image/svg+xml</dc:format><dc:type
           rdf:resource="http://purl.org/dc/dcmitype/StillImage" /><dc:title></dc:title></cc:Work></rdf:RDF></metadata><defs
     id="defs1658" /><sodipodi:namedview
     pagecolor="#ffffff"
     bordercolor="#666666"
     borderopacity="1"
     objecttolerance="10"
     gridtolerance="10"
     guidetolerance="10"
     inkscape:pageopacity="0"
     inkscape:pageshadow="2"
     inkscape:window-width="1920"
     inkscape:window-height="1009"
     id="namedview1656"
     showgrid="false"
     inkscape:zoom="5.3400704"
     inkscape:cx="23.387853"
     inkscape:cy="56.930811"
     inkscape:window-x="0"
     inkscape:window-y="0"
     inkscape:window-maximized="1"
     inkscape:current-layer="svg1654" /><g
     enable-background="new    "
     id="g1632"
     transform="translate(0,-0.46848826)"><g
       id="g1630"><g
         id="g1628"><path
           d="M 86.51,15 H 13.491 C 8.801,15 5,18.784 5,23.452 V 77.548 C 5,82.216 8.801,86 13.491,86 H 86.51 C 91.199,86 95,82.216 95,77.548 V 23.452 C 95,18.784 91.199,15 86.51,15 Z m -53.512,7.011 c 1.66,0 3.005,1.339 3.005,2.991 0,1.652 -1.345,2.991 -3.005,2.991 -1.66,0 -3.005,-1.339 -3.005,-2.991 0,-1.652 1.345,-2.991 3.005,-2.991 z m -8.992,0 c 1.66,0 3.005,1.339 3.005,2.991 0,1.652 -1.345,2.991 -3.005,2.991 -1.659,0 -3.005,-1.339 -3.005,-2.991 0,-1.652 1.346,-2.991 3.005,-2.991 z m -9.005,0 c 1.652,0 2.991,1.339 2.991,2.991 0,1.652 -1.339,2.991 -2.991,2.991 -1.652,0 -2.991,-1.339 -2.991,-2.991 0,-1.652 1.339,-2.991 2.991,-2.991 z M 92,76 c 0,4 -3,7 -7,7 H 15 C 11,83 8,80 8,76 V 33 c 0,0.007 83.895,0 84,0 z"
           id="path1626"
           inkscape:connector-curvature="0"
           style="clip-rule:evenodd;fill-rule:evenodd" /></g></g></g><g
     enable-background="new    "
     id="g1640"
     transform="translate(0,-0.46848826)"
     style="fill:#00ff1d;fill-opacity:1"><g
       id="g1638"
       style="fill:#00ff1d;fill-opacity:1"><g
         id="g1636"
         style="fill:#00ff1d;fill-opacity:1"><polygon
           points="30,74 44,59 30,44 22,44 36,59 22,74 "
           id="polygon1634"
           style="fill:#00ff1d;fill-opacity:1" /></g></g></g><g
     enable-background="new    "
     id="g1648"
     transform="translate(0,-0.46848826)"><g
       id="g1646"><g
         id="g1644"><rect
           x="45"
           y="69"
           width="26"
           height="5"
           id="rect1642"
           style="fill:#00ff1d;fill-opacity:1" /></g></g></g></svg>