<?xml version="1.0" encoding="UTF-8" standalone="no"?>
<svg
   xmlns:dc="http://purl.org/dc/elements/1.1/"
   xmlns:cc="http://creativecommons.org/ns#"
   xmlns:rdf="http://www.w3.org/1999/02/22-rdf-syntax-ns#"
   xmlns:svg="http://www.w3.org/2000/svg"
   xmlns="http://www.w3.org/2000/svg"
   xmlns:sodipodi="http://sodipodi.sourceforge.net/DTD/sodipodi-0.dtd"
   xmlns:inkscape="http://www.inkscape.org/namespaces/inkscape"
   version="1.1"
   x="0px"
   y="0px"
   viewBox="0 0 100 100"
   xml:space="preserve"
   id="svg1020"
   sodipodi:docname="code.svg"
   width="100"
   height="100"
   inkscape:version="0.92.2 5c3e80d, 2017-08-06"><metadata
     id="metadata1026"><rdf:RDF><cc:Work
         rdf:about=""><dc:format>image/svg+xml</dc:format><dc:type
           rdf:resource="http://purl.org/dc/dcmitype/StillImage" /><dc:title></dc:title></cc:Work></rdf:RDF></metadata><defs
     id="defs1024" /><sodipodi:namedview
     pagecolor="#ffffff"
     bordercolor="#666666"
     borderopacity="1"
     objecttolerance="10"
     gridtolerance="10"
     guidetolerance="10"
     inkscape:pageopacity="0"
     inkscape:pageshadow="2"
     inkscape:window-width="1920"
     inkscape:window-height="1009"
     id="namedview1022"
     showgrid="false"
     inkscape:zoom="5.3400704"
     inkscape:cx="49.32503"
     inkscape:cy="60.214413"
     inkscape:window-x="0"
     inkscape:window-y="0"
     inkscape:window-maximized="1"
     inkscape:current-layer="svg1020" /><path
     d="M 50,0.8 C 22.9,0.8 0.8,22.8 0.8,50 0.8,77.1 22.9,99.2 50,99.2 77.1,99.2 99.2,77.1 99.2,50 99.2,22.8 77.1,0.8 50,0.8 Z m 0,90.1 C 27.4,90.9 9.1,72.5 9.1,50 9.1,27.4 27.4,9.1 50,9.1 72.6,9.1 90.9,27.4 90.9,50 90.9,72.5 72.5,90.9 50,90.9 Z"
     id="path1008"
     inkscape:connector-curvature="0" /><polygon
     points="38.3,43.8 30.4,49.5 38.4,56 34.9,60.3 21.3,49.3 35,39.3 "
     id="polygon1010"
     transform="translate(0,0.2)" /><polygon
     points="60.9,43.8 64.2,39.3 78,49.3 64.3,60.3 60.8,56 68.8,49.5 "
     id="polygon1012"
     transform="translate(0,0.2)" /><rect
     x="60.678886"
     y="13.077071"
     transform="rotate(19.051009)"
     width="5.5998321"
     height="35.798923"
     id="rect1014"
     style="stroke-width:0.99997002" /></svg>