<?xml version="1.0" encoding="UTF-8" standalone="no"?>
<svg
   xmlns:ns="http://ns.adobe.com/SaveForWeb/1.0/"
   xmlns:dc="http://purl.org/dc/elements/1.1/"
   xmlns:cc="http://creativecommons.org/ns#"
   xmlns:rdf="http://www.w3.org/1999/02/22-rdf-syntax-ns#"
   xmlns:svg="http://www.w3.org/2000/svg"
   xmlns="http://www.w3.org/2000/svg"
   xmlns:sodipodi="http://sodipodi.sourceforge.net/DTD/sodipodi-0.dtd"
   xmlns:inkscape="http://www.inkscape.org/namespaces/inkscape"
   version="1.1"
   x="0px"
   y="0px"
   viewBox="0 0 100 100"
   enable-background="new 0 0 100 100"
   xml:space="preserve"
   id="svg927"
   sodipodi:docname="email.svg"
   width="100"
   height="100"
   inkscape:version="0.92.2 5c3e80d, 2017-08-06"><defs
     id="defs931" /><sodipodi:namedview
     pagecolor="#ffffff"
     bordercolor="#666666"
     borderopacity="1"
     objecttolerance="10"
     gridtolerance="10"
     guidetolerance="10"
     inkscape:pageopacity="0"
     inkscape:pageshadow="2"
     inkscape:window-width="1920"
     inkscape:window-height="1009"
     id="namedview929"
     showgrid="false"
     inkscape:zoom="6.576"
     inkscape:cx="50"
     inkscape:cy="56.417275"
     inkscape:window-x="0"
     inkscape:window-y="0"
     inkscape:window-maximized="1"
     inkscape:current-layer="svg927" /><metadata
     id="metadata919"><ns:sfw><ns:slices /><ns:sliceSourceBounds
         width="1448.1"
         height="1444.6"
         x="0.8"
         y="-1448.4"
         bottomLeftOrigin="true" /></ns:sfw><rdf:RDF><cc:Work
         rdf:about=""><dc:format>image/svg+xml</dc:format><dc:type
           rdf:resource="http://purl.org/dc/dcmitype/StillImage" /><dc:title></dc:title></cc:Work></rdf:RDF></metadata><path
     d="m 53.2,45.6 c 0.9,1 1.4,2.2 1.4,3.8 0,2 -0.6,3.7 -1.7,5.2 -1.1,1.5 -2.5,2.3 -4.1,2.3 -1.1,0 -1.9,-0.6 -2.6,-1.7 -0.7,-1.1 -1,-2.5 -1,-4.2 0,-2.1 0.5,-3.7 1.4,-5 0.9,-1.3 2.1,-1.9 3.4,-1.9 1.2,0.1 2.3,0.6 3.2,1.5 z M 13.4,75.9 C 6.8,68.8 2.9,59.8 2.9,50 2.9,27.2 24,8.7 50,8.7 76,8.7 97.1,27.2 97.1,50 97.1,72.8 76,91.3 50,91.3 40.6,91.3 31.8,88.9 24.4,84.7 17.8,88.7 10.6,88.5 6.4,88 5.2,87.8 4.9,86.3 5.9,85.6 10,82.9 12.2,79.2 13.4,75.9 Z M 25.6,50 c 0,6.7 2.3,12.5 7,17.3 4.7,4.8 11,7.3 19,7.3 4.8,0 9.5,-1 14.1,-3 1.5,-0.6 2.2,-2.4 1.6,-3.9 -0.6,-1.6 -2.4,-2.3 -4,-1.6 -4,1.7 -7.9,2.6 -11.8,2.6 -6.1,0 -10.8,-1.9 -14.2,-5.6 -3.3,-3.7 -5,-8.1 -5,-13.1 0,-5.4 1.8,-10 5.4,-13.6 3.6,-3.6 8,-5.5 13.2,-5.5 4.8,0 8.9,1.5 12.2,4.5 3.3,3 5,6.7 5,11.3 0,3.1 -0.8,5.7 -2.3,7.7 -1.5,2.1 -3.1,3.1 -4.7,3.1 -0.9,0 -1.3,-0.5 -1.3,-1.4 0,-0.8 0.1,-1.7 0.2,-2.7 L 61.9,38.1 H 55.5 L 55,39.7 c -1.6,-1.3 -3.4,-2 -5.4,-2 -3.1,0 -5.7,1.2 -7.9,3.7 -2.2,2.5 -3.3,5.6 -3.3,9.5 0,3.8 1,6.8 2.9,9.2 2,2.3 4.3,3.5 7,3.5 2.5,0 4.6,-1 6.3,-3.1 1.3,2 3.2,3 5.8,3 3.8,0 7,-1.6 9.7,-4.9 2.7,-3.3 4.1,-7.2 4.1,-11.8 0,-5.9 -2.2,-10.9 -6.7,-15 -4.5,-4.1 -10.1,-6.2 -16.7,-6.2 -7,0 -13,2.3 -17.9,7 C 28.1,37.2 25.6,43 25.6,50 Z"
     id="path921"
     inkscape:connector-curvature="0"
     style="fill:#0042a1;fill-opacity:1" /></svg>