<?xml version="1.0" encoding="UTF-8" standalone="no"?>
<svg
   viewBox="0 0 1024 512.00001"
   version="1.1"
   id="svg68"
   sodipodi:docname="nodejs-logo-banner.svg"
   width="1024"
   height="512"
   inkscape:version="1.2.2 (b0a8486541, 2022-12-01)"
   xmlns:inkscape="http://www.inkscape.org/namespaces/inkscape"
   xmlns:sodipodi="http://sodipodi.sourceforge.net/DTD/sodipodi-0.dtd"
   xmlns:xlink="http://www.w3.org/1999/xlink"
   xmlns="http://www.w3.org/2000/svg"
   xmlns:svg="http://www.w3.org/2000/svg">
  <sodipodi:namedview
     id="namedview70"
     pagecolor="#ffffff"
     bordercolor="#000000"
     borderopacity="0.25"
     inkscape:showpageshadow="2"
     inkscape:pageopacity="0.0"
     inkscape:pagecheckerboard="0"
     inkscape:deskcolor="#d1d1d1"
     showgrid="false"
     inkscape:zoom="0.62232294"
     inkscape:cx="277.99072"
     inkscape:cy="171.93645"
     inkscape:window-width="1920"
     inkscape:window-height="1011"
     inkscape:window-x="0"
     inkscape:window-y="0"
     inkscape:window-maximized="1"
     inkscape:current-layer="svg68" />
  <defs
     id="defs38">
    <linearGradient
       id="b"
       x1="180.7"
       y1="80.699997"
       x2="142.60001"
       y2="158.39999"
       gradientUnits="userSpaceOnUse">
      <stop
         offset="0"
         stop-color="#3f873f"
         id="stop2" />
      <stop
         offset=".3"
         stop-color="#3f8b3d"
         id="stop4" />
      <stop
         offset=".6"
         stop-color="#3e9637"
         id="stop6" />
      <stop
         offset=".9"
         stop-color="#3da92e"
         id="stop8" />
      <stop
         offset="1"
         stop-color="#3dae2b"
         id="stop10" />
    </linearGradient>
    <linearGradient
       id="d"
       x1="157.2"
       y1="121.3"
       x2="264"
       y2="42.400002"
       gradientUnits="userSpaceOnUse">
      <stop
         offset=".1"
         stop-color="#3f873f"
         id="stop13" />
      <stop
         offset=".4"
         stop-color="#529f44"
         id="stop15" />
      <stop
         offset=".7"
         stop-color="#63b649"
         id="stop17" />
      <stop
         offset=".9"
         stop-color="#6abf4b"
         id="stop19" />
    </linearGradient>
    <linearGradient
       id="a"
       x1="114.6"
       y1="53.799999"
       x2="212"
       y2="53.799999"
       gradientUnits="userSpaceOnUse">
      <stop
         offset=".1"
         stop-color="#6abf4b"
         id="stop22" />
      <stop
         offset=".3"
         stop-color="#63b649"
         id="stop24" />
      <stop
         offset=".6"
         stop-color="#529f44"
         id="stop26" />
      <stop
         offset=".9"
         stop-color="#3f873f"
         id="stop28" />
    </linearGradient>
    <linearGradient
       id="e"
       x1="114.9"
       y1="115.7"
       x2="212.3"
       y2="115.7"
       xlink:href="#a" />
    <linearGradient
       id="f"
       x1="114.6"
       y1="143.39999"
       x2="212"
       y2="143.39999"
       xlink:href="#a" />
    <linearGradient
       id="g"
       x1="114.9"
       y1="156"
       x2="212.3"
       y2="156"
       xlink:href="#a" />
    <linearGradient
       id="h"
       x1="226.5"
       y1="78.400002"
       x2="166.39999"
       y2="201"
       xlink:href="#b" />
    <clipPath
       id="c"
       transform="translate(-.3)">
      <path
         d="m 166.1,62.6 a 5,5 0 0 0 -5,0 L 118.8,87 a 5,5 0 0 0 -2.5,4.4 V 140 a 5,5 0 0 0 2.5,4.4 l 42.1,24.3 a 5,5 0 0 0 5,0 l 42.2,-24.3 a 5,5 0 0 0 2.6,-4.4 V 91.3 a 5,5 0 0 0 -2.6,-4.4 z"
         fill="url(#b)"
         clip-rule="evenodd"
         id="path35" />
    </clipPath>
    <linearGradient
       inkscape:collect="always"
       xlink:href="#b"
       id="linearGradient2102"
       gradientUnits="userSpaceOnUse"
       x1="180.7"
       y1="80.699997"
       x2="142.60001"
       y2="158.39999"
       gradientTransform="translate(-0.3)" />
    <linearGradient
       inkscape:collect="always"
       xlink:href="#a"
       id="linearGradient2104"
       gradientUnits="userSpaceOnUse"
       x1="114.6"
       y1="53.799999"
       x2="212"
       y2="53.799999" />
  </defs>
  <rect
     style="opacity:0.99;fill:#333333;fill-opacity:1;stroke-width:152.178"
     id="rect351"
     width="1024"
     height="512"
     x="0"
     y="0" />
  <g
     id="g2483"
     transform="matrix(1.4176618,0,0,1.4176618,198.41342,63.902213)">
    <path
       d="m 218.7,271 a 8.4,8.4 0 0 1 -4.2,-1.2 l -13.3,-7.9 c -2,-1.1 -1,-1.5 -0.4,-1.7 a 26.3,26.3 0 0 0 6,-2.8 1,1 0 0 1 1,0.1 l 10.2,6 a 1.3,1.3 0 0 0 1.3,0 l 40,-23 a 1.3,1.3 0 0 0 0.5,-1 v -46.2 a 1.3,1.3 0 0 0 -0.6,-1 l -40,-23 a 1.2,1.2 0 0 0 -1.1,0 l -40,23 a 1.3,1.3 0 0 0 -0.6,1 v 46.1 a 1.2,1.2 0 0 0 0.6,1.1 l 11,6.3 c 6,3 9.6,-0.5 9.6,-4 v -45.5 a 1.1,1.1 0 0 1 1.1,-1.2 h 5 a 1.1,1.1 0 0 1 1.2,1.2 v 45.5 c 0,8 -4.3,12.5 -11.8,12.5 -2.3,0 -4.1,0 -9.2,-2.5 l -10.5,-6 a 8.5,8.5 0 0 1 -4.2,-7.3 v -46.1 a 8.4,8.4 0 0 1 4.2,-7.3 l 40,-23.1 a 8.8,8.8 0 0 1 8.3,0 l 40,23 a 8.4,8.4 0 0 1 4.2,7.4 v 46 a 8.5,8.5 0 0 1 -4.1,7.3 l -40,23.1 a 8.4,8.4 0 0 1 -4.2,1.1 z"
       fill="#679e63"
       id="path40" />
    <path
       d="m 231,239.2 c -17.5,0 -21.2,-8 -21.2,-14.8 a 1.1,1.1 0 0 1 1.2,-1.1 h 5.2 a 1.1,1.1 0 0 1 1.1,1 c 0.8,5.2 3.1,7.9 13.7,7.9 8.4,0 12,-2 12,-6.4 0,-2.6 -1,-4.5 -14.1,-5.8 -11,-1 -17.7,-3.5 -17.7,-12.2 0,-8 6.8,-12.9 18.2,-12.9 12.8,0 19.1,4.5 20,14 a 1.1,1.1 0 0 1 -0.4,1 1.2,1.2 0 0 1 -0.8,0.3 H 243 a 1.1,1.1 0 0 1 -1.1,-1 c -1.3,-5.5 -4.3,-7.2 -12.5,-7.2 -9.2,0 -10.3,3.2 -10.3,5.6 0,2.9 1.3,3.7 13.7,5.4 12.4,1.7 18.1,3.9 18.1,12.5 0,8.6 -7.2,13.7 -20,13.7 z m 57.6,-48.4 a 7.7,7.7 0 1 1 -7.7,-7.7 7.7,7.7 0 0 1 7.7,7.7 z m -14.2,0 a 6.5,6.5 0 1 0 6.5,-6.4 6.5,6.5 0 0 0 -6.5,6.4 z m 3.6,-4.3 h 3 c 1,0 3,0 3,2.3 a 2,2 0 0 1 -1.6,2.1 c 1.1,0 1.2,0.9 1.4,2 a 8.5,8.5 0 0 0 0.4,2.3 h -1.8 l -0.3,-2.7 c -0.1,-0.5 -0.3,-0.8 -1,-0.8 h -1.4 v 3.5 H 278 Z m 1.6,3.8 h 1.4 a 1.2,1.2 0 0 0 1.3,-1.2 c 0,-1.2 -0.8,-1.2 -1.3,-1.2 h -1.4 z"
       fill="#679e63"
       id="path42" />
    <path
       d="M 95,90.5 A 5.1,5.1 0 0 0 92.4,86.1 L 50,61.7 a 5.1,5.1 0 0 0 -2.3,-0.6 h -0.5 a 5.2,5.2 0 0 0 -2.3,0.6 L 2.6,86.1 A 5.1,5.1 0 0 0 0,90.6 v 65.6 a 2.5,2.5 0 0 0 1.4,2.2 2.5,2.5 0 0 0 2.5,0 L 29.1,144 a 5.2,5.2 0 0 0 2.6,-4.5 V 109 a 5.1,5.1 0 0 1 2.5,-4.4 L 45,98.3 a 5.1,5.1 0 0 1 2.5,-0.7 5,5 0 0 1 2.6,0.7 l 10.7,6.2 a 5.1,5.1 0 0 1 2.5,4.4 v 30.6 A 5.2,5.2 0 0 0 66,144 l 25,14.4 a 2.5,2.5 0 0 0 2.6,0 2.6,2.6 0 0 0 1.3,-2.2 z M 298.7,0.3 a 2.6,2.6 0 0 0 -3.8,2.3 v 65 a 1.8,1.8 0 0 1 -1,1.5 1.8,1.8 0 0 1 -1.7,0 L 281.6,63 a 5.1,5.1 0 0 0 -5,0 L 234,87.5 a 5,5 0 0 0 -2.5,4.4 v 48.9 a 5.1,5.1 0 0 0 2.6,4.4 l 42.3,24.5 a 5.1,5.1 0 0 0 5.1,0 l 42.4,-24.5 a 5.1,5.1 0 0 0 2.6,-4.4 v -122 a 5.1,5.1 0 0 0 -2.7,-4.4 z m -4,124.4 a 1.3,1.3 0 0 1 -0.6,1.1 l -14.5,8.4 a 1.3,1.3 0 0 1 -1.3,0 l -14.5,-8.4 a 1.3,1.3 0 0 1 -0.7,-1 v -16.9 a 1.3,1.3 0 0 1 0.6,-1 l 14.6,-8.5 a 1.3,1.3 0 0 1 1.3,0 l 14.5,8.4 a 1.3,1.3 0 0 1 0.7,1.1 z m 145.1,-17.2 a 5.1,5.1 0 0 0 2.6,-4.4 V 91.2 a 5.1,5.1 0 0 0 -2.6,-4.4 L 397.7,62.3 a 5.1,5.1 0 0 0 -5.1,0 l -42.4,24.5 a 5,5 0 0 0 -2.5,4.4 v 49 a 5.1,5.1 0 0 0 2.6,4.4 l 42,24 a 5.1,5.1 0 0 0 5,0 l 25.5,-14.2 a 2.6,2.6 0 0 0 0,-4.5 l -42.6,-24.4 a 2.6,2.6 0 0 1 -1.3,-2.2 V 108 a 2.5,2.5 0 0 1 1.3,-2.2 l 13.3,-7.7 a 2.5,2.5 0 0 1 2.5,0 l 13.3,7.7 a 2.5,2.5 0 0 1 1.3,2.2 v 12 a 2.5,2.5 0 0 0 3.8,2.2 z"
       fill="#ffffff"
       fill-rule="evenodd"
       id="path44" />
    <path
       d="m 394.5,105.2 a 1,1 0 0 1 1,0 l 8.2,4.7 a 1,1 0 0 1 0.5,0.8 v 9.4 a 1,1 0 0 1 -0.5,0.9 l -8.1,4.7 a 1,1 0 0 1 -1,0 l -8.2,-4.7 a 1,1 0 0 1 -0.4,-0.9 v -9.4 a 1,1 0 0 1 0.4,-0.8 z"
       fill="#679e63"
       fill-rule="evenodd"
       id="path46" />
    <path
       d="m 165.8,62.6 a 5,5 0 0 0 -5,0 L 118.5,87 A 5,5 0 0 0 116,91.4 V 140 a 5,5 0 0 0 2.5,4.4 l 42.1,24.3 a 5,5 0 0 0 5,0 l 42.2,-24.3 a 5,5 0 0 0 2.6,-4.4 V 91.3 a 5,5 0 0 0 -2.6,-4.4 z"
       fill-rule="evenodd"
       fill="url(#b)"
       id="path48"
       style="fill:url(#linearGradient2102)" />
    <g
       clip-path="url(#c)"
       id="g66">
      <path
         d="m 160.6,62.6 -42.2,24.3 a 5.3,5.3 0 0 0 -2.7,4.4 V 140 a 4.9,4.9 0 0 0 1.3,3.2 l 47.4,-81.1 a 5.2,5.2 0 0 0 -3.8,0.5 z m 4.1,106.6 a 5,5 0 0 0 1.2,-0.5 L 208,144.4 a 5.2,5.2 0 0 0 2.7,-4.4 V 91.3 a 5,5 0 0 0 -1.5,-3.5 z"
         fill="none"
         id="path50" />
      <path
         d="M 208.3,87 166.1,62.6 a 5,5 0 0 0 -1.3,-0.5 l -47.5,81.1 a 6,6 0 0 0 1.4,1.2 l 42.4,24.3 a 5.2,5.2 0 0 0 3.9,0.5 l 44.5,-81.4 a 6,6 0 0 0 -1.2,-0.9 z"
         transform="translate(-0.3)"
         fill="url(#d)"
         id="path52"
         style="fill:url(#d)" />
      <path
         d="M 210.7,140 V 91.3 A 5.2,5.2 0 0 0 208,87 L 165.8,62.7 a 5,5 0 0 0 -1.6,-0.6 l 46.3,79.1 a 4.5,4.5 0 0 0 0.2,-1.1 z M 118.4,86.9 a 5.3,5.3 0 0 0 -2.7,4.4 V 140 a 5.3,5.3 0 0 0 2.7,4.4 l 42.3,24.3 a 5.1,5.1 0 0 0 3.3,0.7 L 118.7,86.8 Z"
         fill="none"
         id="path54" />
      <path
         fill="url(#a)"
         d="m 159.3,53.6 -0.6,0.4 h 0.8 z"
         id="path56"
         style="fill:url(#linearGradient2104)" />
      <path
         d="m 208.3,144.4 a 5.3,5.3 0 0 0 2.5,-3.2 L 164.5,62 a 5.2,5.2 0 0 0 -3.6,0.6 l -41.9,24.2 45.3,82.6 a 5.2,5.2 0 0 0 1.9,-0.7 z"
         transform="translate(-0.3)"
         fill="url(#e)"
         id="path58"
         style="fill:url(#e)" />
      <path
         fill="url(#f)"
         d="m 212,143.6 -0.3,-0.5 v 0.7 z"
         id="path60"
         style="fill:url(#f)" />
      <path
         d="m 208.3,144.4 -42.1,24.3 a 5.2,5.2 0 0 1 -1.9,0.7 l 0.8,1.5 46.9,-27.1 v -0.7 l -1.2,-2 a 5.3,5.3 0 0 1 -2.5,3.3 z"
         transform="translate(-0.3)"
         fill="url(#g)"
         id="path62"
         style="fill:url(#g)" />
      <path
         d="m 208.3,144.4 -42.1,24.3 a 5.2,5.2 0 0 1 -1.9,0.7 l 0.8,1.5 46.9,-27.1 v -0.7 l -1.2,-2 a 5.3,5.3 0 0 1 -2.5,3.3 z"
         transform="translate(-0.3)"
         fill="url(#h)"
         id="path64"
         style="fill:url(#h)" />
    </g>
  </g>
</svg>
