<?xml version="1.0" encoding="UTF-8" standalone="no"?>
<svg
   width="1024"
   height="512"
   viewBox="0 0 1024 512"
   version="1.1"
   id="svg202"
   sodipodi:docname="snapcraft.svg"
   inkscape:version="1.2.2 (b0a8486541, 2022-12-01)"
   xmlns:inkscape="http://www.inkscape.org/namespaces/inkscape"
   xmlns:sodipodi="http://sodipodi.sourceforge.net/DTD/sodipodi-0.dtd"
   xmlns="http://www.w3.org/2000/svg"
   xmlns:svg="http://www.w3.org/2000/svg">
  <defs
     id="defs206" />
  <sodipodi:namedview
     id="namedview204"
     pagecolor="#ffffff"
     bordercolor="#000000"
     borderopacity="0.25"
     inkscape:showpageshadow="2"
     inkscape:pageopacity="0.0"
     inkscape:pagecheckerboard="0"
     inkscape:deskcolor="#d1d1d1"
     showgrid="false"
     inkscape:zoom="0.48659"
     inkscape:cx="-47.26772"
     inkscape:cy="263.05514"
     inkscape:window-width="1920"
     inkscape:window-height="1011"
     inkscape:window-x="0"
     inkscape:window-y="0"
     inkscape:window-maximized="1"
     inkscape:current-layer="svg202" />
  <rect
     style="opacity:0.99;fill:#262626;fill-opacity:1;stroke-width:85.2533"
     id="rect364"
     width="1024"
     height="512"
     x="0"
     y="0" />
  <g
     id="Page-1"
     stroke="none"
     stroke-width="1"
     fill="none"
     fill-rule="evenodd"
     transform="matrix(4.0196822,0,0,4.0196822,238.66161,195.70477)">
    <g
       id="Artboard">
      <g
         id="snapcraft-logo"
         transform="translate(-6,-1)">
        <polygon
           id="plate"
           points="0,0 148,0 148,32 0,32 " />
        <path
           d="m 50.1809,22.0283 c 0.906,0 1.655,-0.15 2.246,-0.449 0.591,-0.299 0.886,-0.805 0.886,-1.517 0,-0.34 -0.053,-0.632 -0.157,-0.874 -0.106,-0.244 -0.28,-0.462 -0.523,-0.656 -0.242,-0.195 -0.562,-0.38 -0.959,-0.558 -0.397,-0.179 -0.886,-0.389 -1.469,-0.633 -0.469,-0.193 -0.915,-0.391 -1.335,-0.594 -0.421,-0.202 -0.793,-0.437 -1.117,-0.704 -0.324,-0.267 -0.583,-0.586 -0.777,-0.959 -0.193,-0.372 -0.291,-0.826 -0.291,-1.359 0,-1.021 0.384,-1.846 1.153,-2.477 0.769,-0.631 1.825,-0.948 3.169,-0.948 0.858,0 1.565,0.073 2.124,0.219 0.559,0.146 0.951,0.276 1.178,0.389 l -0.365,1.408 c -0.194,-0.098 -0.521,-0.226 -0.983,-0.389 -0.461,-0.161 -1.137,-0.242 -2.027,-0.242 -0.357,0 -0.692,0.036 -1.008,0.109 -0.316,0.073 -0.595,0.187 -0.838,0.34 -0.243,0.155 -0.437,0.35 -0.582,0.584 -0.146,0.236 -0.219,0.524 -0.219,0.864 0,0.341 0.065,0.633 0.194,0.876 0.13,0.244 0.32,0.459 0.571,0.645 0.251,0.187 0.558,0.36 0.923,0.522 0.364,0.161 0.78,0.338 1.25,0.531 0.486,0.194 0.951,0.391 1.396,0.593 0.445,0.201 0.838,0.444 1.178,0.727 0.339,0.282 0.615,0.623 0.825,1.019 0.21,0.397 0.316,0.895 0.316,1.494 0,1.133 -0.425,1.99 -1.275,2.573 -0.849,0.583 -2.011,0.875 -3.484,0.875 -1.101,0 -1.943,-0.095 -2.525,-0.28 -0.582,-0.186 -0.971,-0.327 -1.166,-0.425 l 0.413,-1.433 c 0.049,0.033 0.154,0.085 0.316,0.159 0.162,0.072 0.38,0.154 0.655,0.242 0.275,0.09 0.604,0.167 0.984,0.231 0.38,0.065 0.821,0.097 1.323,0.097"
           id="Fill-7"
           fill="#ffffff" />
        <path
           d="m 57.1077,11.0293 c 0.469,-0.129 1.1,-0.275 1.894,-0.437 0.793,-0.162 1.764,-0.243 2.913,-0.243 0.955,0 1.752,0.138 2.392,0.413 0.639,0.275 1.149,0.667 1.53,1.178 0.379,0.51 0.651,1.12 0.813,1.833 0.162,0.712 0.243,1.497 0.243,2.356 v 7.016 h -1.579 v -6.507 c 0,-0.89 -0.06,-1.643 -0.182,-2.257 -0.121,-0.616 -0.323,-1.118 -0.607,-1.507 -0.283,-0.388 -0.655,-0.667 -1.116,-0.837 -0.462,-0.17 -1.041,-0.255 -1.737,-0.255 -0.745,0 -1.387,0.04 -1.929,0.122 -0.543,0.08 -0.895,0.153 -1.057,0.218 v 11.023 h -1.578 z"
           id="Fill-9"
           fill="#ffffff" />
        <path
           d="m 73.7717,10.3008 c 0.826,0 1.526,0.118 2.102,0.352 0.573,0.235 1.039,0.559 1.394,0.972 0.358,0.412 0.615,0.902 0.778,1.468 0.162,0.567 0.243,1.182 0.243,1.846 v 7.915 c -0.163,0.049 -0.397,0.101 -0.704,0.158 -0.308,0.057 -0.664,0.117 -1.069,0.182 -0.405,0.064 -0.853,0.117 -1.348,0.158 -0.494,0.04 -0.999,0.06 -1.517,0.06 -0.663,0 -1.275,-0.072 -1.833,-0.218 -0.559,-0.146 -1.044,-0.377 -1.457,-0.692 -0.412,-0.316 -0.736,-0.72 -0.971,-1.214 -0.234,-0.494 -0.351,-1.096 -0.351,-1.809 0,-0.68 0.129,-1.262 0.387,-1.748 0.259,-0.485 0.623,-0.886 1.093,-1.201 0.469,-0.317 1.027,-0.548 1.676,-0.693 0.646,-0.145 1.35,-0.218 2.111,-0.218 0.228,0 0.466,0.012 0.717,0.036 0.251,0.024 0.494,0.057 0.728,0.097 0.235,0.041 0.437,0.081 0.607,0.122 0.171,0.04 0.288,0.077 0.352,0.108 v -0.776 c 0,-0.437 -0.033,-0.862 -0.097,-1.275 -0.065,-0.413 -0.205,-0.785 -0.425,-1.117 -0.219,-0.331 -0.525,-0.598 -0.923,-0.801 -0.395,-0.202 -0.918,-0.303 -1.566,-0.303 -0.922,0 -1.61,0.065 -2.063,0.195 -0.453,0.129 -0.785,0.234 -0.996,0.314 l -0.218,-1.383 c 0.275,-0.13 0.701,-0.251 1.275,-0.365 0.574,-0.113 1.266,-0.17 2.075,-0.17 m 0.146,11.703 c 0.616,0 1.154,-0.02 1.616,-0.061 0.461,-0.04 0.852,-0.093 1.176,-0.157 v -4.419 c -0.177,-0.081 -0.46,-0.166 -0.849,-0.255 -0.389,-0.089 -0.923,-0.134 -1.603,-0.134 -0.387,0 -0.793,0.029 -1.214,0.085 -0.42,0.058 -0.81,0.178 -1.166,0.364 -0.356,0.186 -0.647,0.442 -0.874,0.765 -0.225,0.324 -0.339,0.754 -0.339,1.287 0,0.47 0.077,0.866 0.23,1.19 0.154,0.324 0.372,0.583 0.655,0.778 0.285,0.193 0.624,0.335 1.022,0.424 0.395,0.089 0.845,0.133 1.346,0.133"
           id="Fill-11"
           fill="#ffffff" />
        <path
           d="m 82.595,27.6367 h -1.578 v -16.607 c 0.469,-0.162 1.067,-0.316 1.797,-0.461 0.727,-0.146 1.649,-0.219 2.766,-0.219 0.923,0 1.761,0.15 2.513,0.449 0.754,0.299 1.4,0.733 1.943,1.299 0.542,0.567 0.962,1.255 1.262,2.063 0.299,0.81 0.449,1.725 0.449,2.745 0,0.955 -0.125,1.834 -0.376,2.634 -0.251,0.801 -0.619,1.49 -1.103,2.063 -0.486,0.576 -1.081,1.024 -1.785,1.348 -0.705,0.325 -1.511,0.487 -2.416,0.487 -0.826,0 -1.542,-0.118 -2.15,-0.353 -0.606,-0.235 -1.048,-0.458 -1.322,-0.668 z m 0,-6.75 c 0.146,0.113 0.327,0.235 0.545,0.365 0.22,0.129 0.474,0.25 0.766,0.364 0.292,0.113 0.607,0.207 0.947,0.279 0.34,0.073 0.694,0.109 1.067,0.109 0.778,0 1.429,-0.133 1.955,-0.401 0.526,-0.266 0.95,-0.631 1.275,-1.092 0.324,-0.462 0.558,-1.004 0.704,-1.627 0.145,-0.623 0.219,-1.283 0.219,-1.978 0,-1.652 -0.414,-2.917 -1.239,-3.8 -0.826,-0.883 -1.918,-1.323 -3.278,-1.323 -0.776,0 -1.403,0.036 -1.882,0.108 -0.476,0.073 -0.837,0.15 -1.079,0.231 z"
           id="Fill-13"
           fill="#ffffff" />
        <path
           d="m 102.3811,22.5137 c -0.178,0.113 -0.388,0.216 -0.631,0.304 -0.243,0.089 -0.506,0.17 -0.79,0.243 -0.282,0.073 -0.574,0.129 -0.873,0.17 -0.3,0.04 -0.579,0.06 -0.838,0.06 -1.812,0 -3.213,-0.547 -4.201,-1.639 -0.986,-1.092 -1.48,-2.651 -1.48,-4.673 0,-1.021 0.129,-1.935 0.388,-2.744 0.259,-0.809 0.627,-1.497 1.106,-2.065 0.476,-0.565 1.059,-0.998 1.748,-1.299 0.686,-0.298 1.459,-0.448 2.317,-0.448 0.68,0 1.263,0.049 1.749,0.146 0.485,0.096 0.914,0.242 1.286,0.437 l -0.242,0.753 c -0.324,-0.179 -0.728,-0.316 -1.214,-0.413 -0.485,-0.098 -1.012,-0.146 -1.579,-0.146 -1.505,0 -2.663,0.501 -3.472,1.504 -0.809,1.004 -1.213,2.429 -1.213,4.275 0,1.812 0.409,3.188 1.226,4.127 0.817,0.938 2.011,1.408 3.581,1.408 0.469,0 0.987,-0.073 1.554,-0.219 0.566,-0.145 1.027,-0.323 1.384,-0.533 z"
           id="Fill-15"
           fill="#ffffff" />
        <path
           d="m 105.5598,23.1455 h -0.826 v -11.825 c 0.583,-0.291 1.193,-0.51 1.834,-0.655 0.638,-0.146 1.283,-0.219 1.93,-0.219 0.938,0 1.683,0.106 2.234,0.316 l -0.17,0.728 c -0.243,-0.08 -0.551,-0.145 -0.923,-0.194 -0.372,-0.048 -0.769,-0.072 -1.19,-0.072 -0.486,0 -0.984,0.052 -1.493,0.157 -0.51,0.106 -0.975,0.255 -1.396,0.449 z"
           id="Fill-17"
           fill="#ffffff" />
        <path
           d="m 120.3967,22.7324 c -0.6,0.178 -1.25,0.315 -1.954,0.413 -0.705,0.097 -1.398,0.146 -2.077,0.146 -1.586,0 -2.783,-0.319 -3.593,-0.959 -0.811,-0.64 -1.214,-1.591 -1.214,-2.854 0,-1.214 0.421,-2.132 1.263,-2.755 0.841,-0.623 2.112,-0.935 3.811,-0.935 0.486,0 1.003,0.045 1.554,0.133 0.551,0.09 1.012,0.199 1.385,0.328 v -0.948 c 0,-1.455 -0.273,-2.507 -0.815,-3.155 -0.542,-0.647 -1.476,-0.972 -2.803,-0.972 -0.518,0 -1.049,0.054 -1.591,0.159 -0.542,0.105 -0.975,0.239 -1.299,0.4 l -0.121,-0.776 c 0.825,-0.372 1.877,-0.559 3.156,-0.559 1.489,0 2.577,0.385 3.266,1.153 0.687,0.769 1.032,1.866 1.032,3.289 z m -0.825,-5.754 c -0.389,-0.145 -0.826,-0.26 -1.313,-0.34 -0.484,-0.081 -1.018,-0.121 -1.601,-0.121 -2.818,0 -4.225,0.986 -4.225,2.961 0,1.037 0.327,1.802 0.983,2.295 0.656,0.494 1.679,0.74 3.072,0.74 0.484,0 0.999,-0.027 1.542,-0.084 0.542,-0.057 1.055,-0.15 1.542,-0.279 z"
           id="Fill-19"
           fill="#ffffff" />
        <path
           d="m 123.761,23.1455 h -0.826 V 9.0875 c 0,-1.651 0.351,-2.861 1.055,-3.63 0.706,-0.769 1.769,-1.154 3.194,-1.154 0.452,0 0.887,0.045 1.3,0.134 0.412,0.089 0.731,0.19 0.959,0.303 l -0.195,0.753 c -0.292,-0.129 -0.628,-0.23 -1.008,-0.303 -0.38,-0.073 -0.733,-0.109 -1.056,-0.109 -1.15,0 -2.008,0.303 -2.573,0.91 -0.568,0.607 -0.85,1.655 -0.85,3.144 v 1.554 h 5.243 v 0.777 h -5.243 z"
           id="Fill-21"
           fill="#ffffff" />
        <path
           d="m 137.6848,22.6357 c -0.34,0.178 -0.753,0.332 -1.238,0.461 -0.487,0.13 -0.964,0.194 -1.433,0.194 -1.295,0 -2.25,-0.332 -2.865,-0.996 -0.615,-0.663 -0.923,-1.811 -0.923,-3.447 V 6.8047 l 0.826,-0.194 v 4.079 h 5.074 v 0.728 h -5.074 v 7.552 c 0,0.695 0.064,1.274 0.194,1.735 0.128,0.461 0.324,0.826 0.583,1.093 0.259,0.268 0.571,0.453 0.934,0.558 0.365,0.105 0.781,0.158 1.251,0.158 0.485,0 0.951,-0.065 1.396,-0.194 0.445,-0.129 0.796,-0.267 1.056,-0.413 z"
           id="Fill-23"
           fill="#ffffff" />
        <polygon
           id="Fill-25"
           fill="#82bfa1"
           points="24.719,8.2803 31.643,11.3573 24.719,18.2813 " />
        <polygon
           id="Fill-27"
           fill="#82bfa1"
           points="11.5002,31.5 23.7162,19.284 19.9892,15.58 " />
        <polygon
           id="Fill-29"
           fill="#82bfa1"
           points="6.6575,1.5 24.1325,18.868 24.1325,7.816 " />
        <polygon
           id="Fill-31"
           fill="#fa6340"
           points="35.1848,7.8154 25.1218,7.8154 38.0598,13.5654 " />
      </g>
    </g>
  </g>
</svg>
