<?xml version="1.0" encoding="UTF-8" standalone="no"?>
<svg
   height="512"
   width="1024"
   version="1.1"
   viewBox="0 0 1024 512"
   id="svg224"
   sodipodi:docname="ubports-logo.svg"
   inkscape:version="1.2.2 (b0a8486541, 2022-12-01)"
   xmlns:inkscape="http://www.inkscape.org/namespaces/inkscape"
   xmlns:sodipodi="http://sodipodi.sourceforge.net/DTD/sodipodi-0.dtd"
   xmlns="http://www.w3.org/2000/svg"
   xmlns:svg="http://www.w3.org/2000/svg">
  <defs
     id="defs228" />
  <sodipodi:namedview
     id="namedview226"
     pagecolor="#ffffff"
     bordercolor="#000000"
     borderopacity="0.25"
     inkscape:showpageshadow="2"
     inkscape:pageopacity="0.0"
     inkscape:pagecheckerboard="0"
     inkscape:deskcolor="#d1d1d1"
     showgrid="false"
     inkscape:zoom="0.48096815"
     inkscape:cx="101.87785"
     inkscape:cy="555.13031"
     inkscape:window-width="1920"
     inkscape:window-height="1011"
     inkscape:window-x="0"
     inkscape:window-y="0"
     inkscape:window-maximized="1"
     inkscape:current-layer="svg224" />
  <rect
     style="opacity:0.99;fill:#ffffff;stroke-width:75.5096"
     id="rect440"
     width="1024"
     height="512"
     x="0"
     y="0" />
  <g
     style="stroke-width:4.039"
     id="g222"
     transform="matrix(1.2775221,0,0,1.2775221,184.98845,-71.052319)">
    <g
       style="fill:#f15a24"
       id="g172">
      <path
         d="m 329.2,240.9 c 0,0 -28.33,-9.714 -72.62,-9.608 -44.31,-0.107 -72.62,9.608 -72.62,9.608 -11.16,188.4 61.63,188.6 72.58,187.6 10.99,1.023 83.81,0.7759 72.66,-187.6"
         id="path164" />
      <path
         d="m 323.3,91.89 c 0,0 -13.65,-7.698 -67,-8.251 -53.35,0.5501 -67,8.251 -67,8.251 -29.47,13.86 -35.36,42.61 -35.75,61.59 0.396,19 6.276,47.74 35.75,61.59 0,0 13.67,7.698 67,8.251 53.35,-0.5501 67,-8.251 67,-8.251 29.47,-13.86 35.34,-42.61 35.73,-61.59 -0.3888,-19 -6.26,-47.74 -35.73,-61.59"
         id="path166" />
      <path
         d="m 155.7,130.7 c 0,0 -6.6,15.67 -1.65,40.71 0,0 -13.61,-1.1 -13.75,-3.3 0,0 -8.663,-13.47 0,-33.83 0,0 0.9625,-1.65 15.4,-3.575"
         id="path168" />
      <path
         d="m 214.5,257.1 c 3.772,4.968 8.93,8.223 14.41,9.596 -7.068,7.444 -15.88,15.33 -25.91,22.94 -30.11,22.86 -59.69,34.56 -66.08,26.15 -6.385,-8.413 12.85,-33.76 42.97,-56.63 10.1,-7.666 20.14,-14.08 29.27,-18.89 -0.2414,5.768 1.502,11.75 5.356,16.83"
         id="path170" />
    </g>
    <g
       style="fill:#db481b"
       id="g182">
      <path
         d="m 329.2,240.9 c 0,0 -28.33,-9.726 -72.62,-9.726 h -0.0125 v 197.5 h 5.6e-4 c 10.99,0.8251 83.81,0.6579 72.66,-187.7"
         id="path174" />
      <path
         d="m 323.6,91.49 c 0,0 -13.65,-7.698 -67,-8.251 v 139.7 c 53.35,-0.5501 67,-8.251 67,-8.251 29.47,-13.86 35.34,-42.61 35.73,-61.59 -0.3888,-19 -6.26,-47.74 -35.73,-61.59"
         id="path176" />
      <path
         d="m 357,130.7 c 0,0 6.6,15.67 1.65,40.71 0,0 13.61,-1.1 13.75,-3.3 0,0 8.663,-13.47 0,-33.83 0,0 -0.9625,-1.65 -15.4,-3.575"
         id="path178" />
      <path
         d="m 294.5,257.1 c -3.772,4.968 -8.93,8.223 -14.42,9.596 7.068,7.444 15.88,15.33 25.91,22.94 30.11,22.86 59.69,34.56 66.08,26.15 6.385,-8.413 -12.85,-33.76 -42.97,-56.63 -10.1,-7.666 -20.14,-14.08 -29.27,-18.89 0.2412,5.768 -1.502,11.75 -5.356,16.83"
         id="path180" />
    </g>
    <g
       style="fill:#333333"
       id="g190">
      <path
         d="m 329.9,134.7 c 3.241,6.571 4.265,13.35 4.398,18.84 -0.2956,11.93 -4.758,29.98 -27.16,38.68 0,0 -10.37,4.835 -50.93,5.182 -40.51,-0.4039 -50.89,-5.251 -50.89,-5.251 -22.4,-8.704 -26.87,-26.75 -27.17,-38.68 0.1383,-5.485 1.163,-12.27 4.406,-18.84 z"
         id="path184" />
      <path
         d="m 330,171.9 c 3.24,-6.571 4.265,-13.35 4.398,-18.84 -0.2954,-11.93 -4.758,-29.98 -27.16,-38.68 0,0 -10.37,-4.835 -50.93,-5.182 -40.55,0.3453 -50.93,5.182 -50.93,5.182 -22.4,8.704 -26.87,26.75 -27.17,38.68 0.1383,5.485 1.163,12.27 4.406,18.84 z"
         id="path186" />
      <path
         d="m 241.9,276.5 c 0,7.896 -6.402,14.3 -14.3,14.3 -7.896,0 -14.3,-6.402 -14.3,-14.3 0,-7.896 6.402,-14.3 14.3,-14.3 7.896,0 14.3,6.402 14.3,14.3"
         id="path188" />
    </g>
    <g
       style="fill:#1a1a1a"
       id="g198">
      <path
         d="m 205.3,122.2 c 0,0 10.39,-4.673 50.93,-5.008 40.55,0.334 50.93,5.008 50.93,5.008 20.46,7.682 25.95,22.89 26.98,34.26 0.098,-1.119 0.1559,-2.203 0.1818,-3.24 -0.2956,-11.93 -4.758,-29.98 -27.16,-38.68 0,0 -10.37,-4.835 -50.93,-5.182 -40.55,0.3453 -50.93,5.182 -50.93,5.182 -22.4,8.704 -26.87,26.75 -27.17,38.68 0.0263,1.037 0.0847,2.121 0.1829,3.24 1.032,-11.37 6.535,-26.58 26.99,-34.26"
         id="path192" />
      <path
         d="m 307.2,114.5 c 0,0 -10.37,-4.835 -50.93,-5.182 h -0.0157 v 87.72 h 0.0157 c 40.55,-0.275 50.93,-5.182 50.93,-5.182 22.4,-8.704 26.87,-26.75 27.16,-38.68 -0.2956,-11.93 -4.758,-29.98 -27.16,-38.68"
         id="path194" />
      <path
         d="m 226.2,265.2 c 7.896,0 14.3,6.402 14.3,14.3 0,1.523 -0.2404,2.989 -0.6814,4.366 1.305,-2.157 2.057,-4.685 2.057,-7.391 0,-7.896 -6.402,-14.3 -14.3,-14.3 -6.373,0 -11.77,4.172 -13.62,9.936 2.505,-4.14 7.052,-6.911 12.25,-6.911"
         id="path196" />
    </g>
    <g
       style="fill:#f2f2f2"
       id="g206">
      <path
         d="m 228.8,152.9 c 0,7.088 -5.747,12.83 -12.83,12.83 -7.088,0 -12.83,-5.747 -12.83,-12.83 0,-7.088 5.747,-12.83 12.83,-12.83 7.088,0 12.83,5.747 12.83,12.83"
         id="path200" />
      <path
         d="m 310,152.9 c 0,7.088 -5.747,12.83 -12.83,12.83 -7.088,0 -12.83,-5.747 -12.83,-12.83 0,-7.088 5.747,-12.83 12.83,-12.83 7.088,0 12.83,5.747 12.83,12.83"
         id="path202" />
      <path
         d="m 240.6,168.2 c 1.926,8.086 8.312,14.03 15.9,14.03 7.589,0 13.97,-5.941 15.9,-14.03 z"
         id="path204" />
    </g>
    <g
       style="fill:#ffffff"
       id="g220">
      <path
         d="m 223.6,271.2 1.152,1.93 c -2.655,1.88 -2.636,5.82 0.004,7.738 l -1.163,1.954 c -0.0814,-0.0448 -0.1507,-0.0743 -0.2101,-0.1171 -1.283,-0.9346 -2.163,-2.158 -2.635,-3.676 -0.0531,-0.1708 -0.0498,-0.2904 0.093,-0.4354 0.9019,-0.9156 0.8918,-2.27 0.005,-3.196 -0.0751,-0.0784 -0.1339,-0.2415 -0.1064,-0.3389 0.4451,-1.572 1.353,-2.822 2.674,-3.777 0.0315,-0.0202 0.0649,-0.0428 0.0993,-0.0606 0.0166,-0.008 0.0372,-0.008 0.0877,-0.0202"
         id="path208" />
      <path
         d="m 234.4,277.3 c -0.1136,1.497 -0.5949,2.765 -1.462,3.886 -0.0356,0.046 -0.0773,0.0876 -0.1092,0.1361 -0.2552,0.3889 -0.5303,0.5598 -1.065,0.4487 -1.044,-0.2169 -2.117,0.5408 -2.417,1.604 -0.0597,0.2108 -0.1543,0.296 -0.3608,0.3405 -1.508,0.3255 -2.971,0.2019 -4.39,-0.4112 -0.071,-0.0323 -0.1411,-0.0646 -0.2095,-0.1006 -0.0238,-0.0121 -0.0418,-0.0363 -0.0776,-0.0699 0.3671,-0.6579 0.7347,-1.316 1.108,-1.986 0.6406,0.2787 1.284,0.4314 1.965,0.4301 2.353,-0.003 4.305,-1.662 4.665,-3.988 0.0363,-0.2343 0.1141,-0.3021 0.3454,-0.2969 0.6571,0.0162 1.314,0.004 2.009,0.004"
         id="path210" />
      <path
         d="m 234.4,276.5 h -2.302 c -0.2019,-1.564 -0.9508,-2.818 -2.345,-3.626 -1.389,-0.8045 -2.839,-0.8264 -4.342,-0.2064 -0.3696,-0.6616 -0.7367,-1.318 -1.118,-2 0.102,-0.0525 0.1834,-0.1006 0.2695,-0.1381 1.445,-0.6268 2.934,-0.7621 4.471,-0.4112 0.1738,0.0404 0.2505,0.1191 0.2989,0.2944 0.3393,1.223 1.54,1.909 2.767,1.582 0.1633,-0.0432 0.2585,-0.0202 0.3754,0.1046 1.097,1.165 1.721,2.544 1.901,4.132 0.008,0.0747 0.001,0.1506 0.001,0.2702"
         id="path212" />
      <path
         d="m 233.2,284.1 c -0.0162,0.8922 -0.7432,1.611 -1.624,1.605 -0.8942,-0.004 -1.628,-0.7557 -1.613,-1.647 0.0158,-0.9047 0.7508,-1.615 1.655,-1.599 0.8837,0.0162 1.597,0.7565 1.581,1.642"
         id="path214" />
      <path
         d="m 219.2,275.3 c 0.9063,-0.004 1.633,0.7181 1.629,1.621 -0.003,0.8902 -0.7181,1.607 -1.608,1.614 -0.899,0.004 -1.632,-0.7234 -1.628,-1.623 0.003,-0.8926 0.7165,-1.607 1.608,-1.612"
         id="path216" />
      <path
         d="m 229.9,269.6 c 0.0186,-0.8934 0.744,-1.6 1.633,-1.59 0.9075,0.0121 1.621,0.7411 1.604,1.645 -0.0161,0.8994 -0.7686,1.622 -1.659,1.594 -0.889,-0.0283 -1.596,-0.767 -1.578,-1.649"
         id="path218" />
    </g>
  </g>
</svg>
